<svg xmlns="http://www.w3.org/2000/svg" viewBox="0 0 287.63 287.5"><defs><style>.cls-1{fill:#e67373;}.cls-2{fill:#3f388e;}.cls-3{fill:#1d1d1b;}.cls-4{fill:#fef5fa;}</style></defs><g id="Layer_2" data-name="Layer 2"><g id="Layer_1-2" data-name="Layer 1"><circle class="cls-1" cx="143.73" cy="143.77" r="143.73"/><path class="cls-2" d="M204.55,273.72a4,4,0,0,1-1.75-7.61,136.6,136.6,0,0,0,76.82-122.34C279.62,68.91,218.72,8,143.85,8a4,4,0,0,1,0-8c79.28,0,143.78,64.5,143.78,143.77a143.81,143.81,0,0,1-81.35,129.55A4,4,0,0,1,204.55,273.72Z"/><path class="cls-3" d="M143.48,272.38a126.63,126.63,0,0,1-56.32-13.16,4,4,0,0,1,3.56-7.17A118.42,118.42,0,0,0,261.88,144.84a4,4,0,0,1,4-4h0a4,4,0,0,1,4,4,126.24,126.24,0,0,1-126.4,127.61Z"/><path class="cls-3" d="M29.21,101.13a4.9,4.9,0,0,1-2-.41,5,5,0,0,1-2.62-6.57,129.46,129.46,0,0,1,225.12-22.8,5,5,0,1,1-8.21,5.71A119.45,119.45,0,0,0,33.8,98.1,5,5,0,0,1,29.21,101.13Z"/><circle class="cls-3" cx="261.05" cy="105.7" r="4.24"/><circle class="cls-3" cx="69.57" cy="242.72" r="4.24"/><path class="cls-4" d="M220.85,67.46l-.48-1.94L218.68,65a4,4,0,0,0-3.38.25C156.76,89.12,120.68,131,100.73,162c-20.52,31.83-28.48,58.22-29.51,61.8A3.56,3.56,0,1,0,78,225.85a209.44,209.44,0,0,1,12.12-30.44l.57,1.09c.11-.05,11.35-5.82,21.29-7.67a73.51,73.51,0,0,1,15.89-1.35c1.25,0,2.35,0,3.37,0l2.27-.1.84-2.1a218.15,218.15,0,0,1,16.79-33l.88-1.43-3.17-9,7.94,1.62,1.32-1.93c4.4-6.46,8.53-12,11.85-16.44,1.31-1.75,2.5-3.34,3.54-4.77,7.51-10.3,39.61-42.5,46-48.85A4.2,4.2,0,0,0,220.85,67.46Z"/></g></g></svg>