<svg xmlns="http://www.w3.org/2000/svg" viewBox="0 0 287.46 287.46"><defs><style>.cls-1{fill:#009fe3;}.cls-2{fill:#fff;}</style></defs><g id="Layer_2" data-name="Layer 2"><g id="Layer_1-2" data-name="Layer 1"><circle class="cls-1" cx="143.73" cy="143.73" r="143.73"/><path class="cls-2" d="M202.43,48.45,201.64,47,200.21,47a3.21,3.21,0,0,0-2.58.92C157.15,79,138,119.28,129.05,147.63c-9.19,29.15-9.76,51.4-9.8,54.41a2.82,2.82,0,0,0,0,1.29,2.88,2.88,0,0,0,5.64-1.1,273.55,273.55,0,0,1,3.63-32.37s-.59,6.77,0,6.79,7.6-7,14.95-10.51a59.21,59.21,0,0,1,12.08-4.44c1-.26.64-.13,1.43-.38a6.94,6.94,0,0,0,2.55-1.46,8,8,0,0,0,1-3.43,109.94,109.94,0,0,1,3.56-19.33l1.15-4.42-11.86-10.79,15.34-.63.61-1.79c2.05-6,4.09-11.15,5.73-15.32.64-1.64,1.23-3.14,1.74-4.47,3.65-9.62,21.78-41.53,25.37-47.83A3.37,3.37,0,0,0,202.43,48.45Z"/><path class="cls-2" d="M153.17,217c-9.45-1.52-16.52-7.7-16.52-15.1a14.66,14.66,0,0,1,4.86-11.33c7.72-1,12.68-2.46,12.68-4.13,0-2.89-14.78-5.24-33-5.24s-33,2.35-33,5.24c0,1.67,5,3.17,12.68,4.13a14.69,14.69,0,0,1,4.85,11.33c0,7.4-7.06,13.58-16.51,15.1-2.65.43-4.53,2.16-4.53,4.15v15.11c0,2.35,2.59,4.25,5.79,4.25h61.45c3.2,0,5.79-1.9,5.79-4.25V221.15C157.7,219.16,155.81,217.43,153.17,217Z"/></g></g></svg>