<svg xmlns="http://www.w3.org/2000/svg" viewBox="0 0 149.97 163.94"><defs><style>.cls-1{fill:#fff;}</style></defs><g id="Layer_2" data-name="Layer 2"><g id="Layer_1-2" data-name="Layer 1"><path class="cls-1" d="M149.87,2.75,149.39.81,147.7.26a4,4,0,0,0-3.38.26C85.78,24.41,49.7,66.32,29.75,97.28,8.13,130.81.45,158.32.13,159.48h0a3.62,3.62,0,0,0-.14.94,3.52,3.52,0,0,0,7,.66A211.93,211.93,0,0,1,19.09,130.7l.57,1.09C19.77,131.73,31,126,41,124.12a74.41,74.41,0,0,1,15.89-1.36c1.25,0,2.35,0,3.37,0l2.27-.11.84-2.1a218.53,218.53,0,0,1,16.79-33L81,86.1l-3.17-9,7.94,1.62,1.32-1.94c4.4-6.45,8.53-12,11.85-16.43,1.31-1.75,2.5-3.34,3.54-4.77,7.51-10.3,39.61-42.51,46-48.86A4.17,4.17,0,0,0,149.87,2.75Z"/></g></g></svg>