<svg xmlns="http://www.w3.org/2000/svg" viewBox="0 0 287.46 287.46"><defs><style>.cls-1{fill:#009fe3;}.cls-2{fill:#fff;}</style></defs><g id="Layer_2" data-name="Layer 2"><g id="Layer_1-2" data-name="Layer 1"><circle class="cls-1" cx="143.73" cy="143.73" r="143.73"/><path class="cls-2" d="M220.26,68.07l-.48-1.94-1.69-.55a3.94,3.94,0,0,0-3.38.26c-58.54,23.89-94.62,65.8-114.57,96.75-20.52,31.83-28.49,58.22-29.51,61.81a3.56,3.56,0,1,0,6.72,2.09A339,339,0,0,1,92.27,189s-2.91,7.9-2.22,8.12,11.35-5.82,21.29-7.68a73.51,73.51,0,0,1,15.89-1.35c1.25,0,.81,0,1.83,0,0,0,2.64-.17,3.53-.91a9.83,9.83,0,0,0,2.27-3.78,136.25,136.25,0,0,1,10.58-21.94l2.82-4.9-10.64-16.77L156.15,144l1.32-1.93c4.4-6.46,8.53-12,11.85-16.43,1.31-1.76,2.5-3.35,3.54-4.78,7.51-10.3,39.61-42.5,46-48.85A4.18,4.18,0,0,0,220.26,68.07Z"/></g></g></svg>