<svg xmlns="http://www.w3.org/2000/svg" viewBox="0 0 291.34 165.78"><defs><style>.cls-1,.cls-2{fill:#009fe3;}.cls-2{font-size:36px;font-family:MontserratAlternates-Medium, Montserrat Alternates;font-weight:500;}.cls-3{letter-spacing:0em;}.cls-4{letter-spacing:0em;}.cls-5{letter-spacing:0.02em;}</style></defs><g id="Layer_2" data-name="Layer 2"><g id="Layer_1-2" data-name="Layer 1"><path class="cls-1" d="M149.74,2.75,149.26.81,147.58.26a4,4,0,0,0-3.39.26C85.65,24.41,49.58,66.32,29.62,97.28,8,130.81.32,158.32,0,159.48l6.78,1.86a339,339,0,0,1,15-37.66s-2.91,7.89-2.23,8.11,11.35-5.82,21.29-7.67a74.45,74.45,0,0,1,15.9-1.36c1.24,0,.81.06,1.83,0,0,0,2.63-.16,3.52-.91a9.83,9.83,0,0,0,2.27-3.78A137.1,137.1,0,0,1,74.92,96.14l2.82-4.9L67.1,74.47l18.53,4.26L87,76.79c4.4-6.45,8.53-12,11.85-16.43,1.31-1.75,2.5-3.34,3.54-4.77,7.52-10.3,39.61-42.51,46-48.86A4.17,4.17,0,0,0,149.74,2.75Z"/><text class="cls-2" transform="translate(95.64 113.11)">WHIS<tspan class="cls-3" x="110.84" y="0">P</tspan><tspan class="cls-4" x="136.65" y="0">ER </tspan><tspan class="cls-5"><tspan x="0" y="43.2">JOURNAL</tspan></tspan></text></g></g></svg>